<svg version="1.1" xmlns="http://www.w3.org/2000/svg" xmlns:xlink="http://www.w3.org/1999/xlink" x="0px" y="0px" width="363.75px" height="201.25px" viewBox="0 0 363.75 201.25" enable-background="new 0 0 363.75 201.25" xml:space="preserve"><path fill="#0066aa" d="M496.595,5.501c14.86,0,26.106,3.61,33.744,10.837c7.631,7.224,11.411,17.488,11.411,30.816c0,10.879-2.508,19.949-7.465,27.174c-4.962,7.225-12.35,12.992-22.256,17.299l-101.367,44.188c-2.998,1.341-5.275,3.212-6.896,5.642c-1.705,2.439-2.519,5.248-2.519,8.437c0,3.749,1.172,6.763,3.448,9.021c2.277,2.241,5.727,3.368,10.356,3.368H537.61v33.215H412.858c-14.862,0-26.074-3.622-33.619-10.825c-7.556-7.225-11.296-17.512-11.296-30.85c0-10.857,2.443-19.928,7.397-27.152s12.509-12.992,22.655-17.299l100.793-44.2c6.416-2.628,9.667-7.328,9.667-14.067c0-3.76-1.181-6.758-3.458-9.019c-2.353-2.249-5.884-3.378-10.597-3.378H374.526V5.501H496.595z"/><path fill="#0066aa" d="M-11.02,5.501v33.206h-119.841c-4.783,0-8.319,1.129-10.598,3.378c-2.31,2.261-3.448,5.259-3.448,9.019c0,6.74,3.207,11.439,9.624,14.067l100.833,44.2c10.111,4.309,17.625,10.075,22.579,17.299c4.957,7.225,7.43,16.295,7.43,27.152c0,13.338-3.733,23.625-11.287,30.85c-7.513,7.203-18.721,10.825-33.586,10.825h-124.792v-33.215h122.56c4.625,0,8.044-1.127,10.355-3.368c2.277-2.259,3.449-5.271,3.449-9.021c0-3.188-0.852-5.997-2.477-8.437c-1.664-2.43-3.973-4.301-6.903-5.642l-101.365-44.188c-9.945-4.309-17.375-10.075-22.329-17.299c-4.958-7.225-7.435-16.295-7.435-27.174c0-13.328,3.818-23.594,11.436-30.816c7.613-7.227,18.859-10.837,33.749-10.837H-11.02z"/><path fill="#0066aa" d="M337.13,29.148C322.678,13.38,301.924,5.501,274.719,5.501h-25.341c-23.143,0-41.59,5.757-55.478,17.18c-2.41,2.002-4.764,4.103-6.902,6.468c-1.857,2.041-3.607,4.24-5.24,6.568c-7.854,11.215-12.879,25.689-15.072,43.319c-0.018,0.103-0.059,0.169-0.074,0.301c-0.042,0.379-0.108,0.956-0.212,1.664c-0.018,0.173-0.025,0.354-0.042,0.515c-0.723,7.373-2.169,27.873-2.868,37.846c-0.303,4.354-0.959,8.685-2.25,12.846c-1.837,5.691-4.224,10.465-7.252,14.359c-0.304,0.388-0.59,0.848-0.91,1.229c-8.167,9.662-21.161,14.489-38.948,14.489H88.788c-18.193,0-31.35-4.786-39.389-14.351c-8.122-9.572-12.142-25.244-12.142-47.02c0-21.947,4.098-37.801,12.264-47.566c8.161-9.75,21.239-14.639,39.266-14.639h25.341c17.991,0,31.027,4.889,39.109,14.639c0.319,0.379,0.598,0.834,0.865,1.23c3.275-11.043,7.721-20.838,13.593-29.162l1.89-2.734c-13.868-11.422-32.355-17.18-55.457-17.18H88.788c-27.207,0-48.001,7.879-62.414,23.646C11.956,44.908,4.768,68.838,4.768,100.926c0,31.901,7.188,55.635,21.606,71.213c14.413,15.578,35.207,23.362,62.414,23.362h25.341c23.076,0,41.541-5.691,55.407-16.929c2.448-2.002,4.82-4.086,6.973-6.433c1.866-2.034,3.599-4.21,5.249-6.499c10.266-14.483,15.609-34.501,16.232-59.908c-0.05-1.585-0.109-3.133-0.109-4.805c0-1.665,0.061-3.227,0.109-4.82c0.565-18.717,4.319-32.613,11.328-41.684c0.308-0.333,0.541-0.74,0.805-1.074c8.188-9.75,21.295-14.639,39.256-14.639h25.341c18.027,0,31.026,4.889,39.139,14.639c8.045,9.766,12.108,25.524,12.108,47.281c0,21.777-4.105,37.502-12.226,47.166c-8.204,9.662-21.161,14.489-39.023,14.489h-25.341c-18.193,0-31.291-4.786-39.395-14.351c-0.2-0.279-0.391-0.6-0.624-0.864c-3.225,10.99-7.763,20.7-13.581,28.94l-1.828,2.561c13.88,11.237,32.318,16.929,55.428,16.929h25.341c27.204,0,47.957-7.784,62.411-23.362c14.452-15.578,21.643-39.312,21.643-71.213C358.772,68.836,351.582,44.906,337.13,29.148z"/></svg>