<svg version="1.1" xmlns="http://www.w3.org/2000/svg" xmlns:xlink="http://www.w3.org/1999/xlink" x="0px" y="0px" width="731.25px" height="333.75px" viewBox="0 0 731.25 333.75" enable-background="new 0 0 731.25 333.75" xml:space="preserve"><path fill="#0066aa" d="M680.595,5.501c14.86,0,26.106,3.61,33.744,10.837c7.631,7.224,11.411,17.488,11.411,30.816c0,10.879-2.508,19.949-7.465,27.174c-4.962,7.225-12.35,12.992-22.256,17.299l-101.367,44.188c-2.998,1.341-5.275,3.212-6.896,5.642c-1.705,2.439-2.519,5.248-2.519,8.437c0,3.749,1.172,6.763,3.448,9.021c2.277,2.241,5.727,3.368,10.356,3.368H721.61v33.215H596.858c-14.862,0-26.074-3.622-33.619-10.825c-7.556-7.225-11.296-17.512-11.296-30.85c0-10.857,2.443-19.928,7.397-27.152s12.509-12.992,22.655-17.299l100.793-44.2c6.416-2.628,9.667-7.328,9.667-14.067c0-3.76-1.181-6.758-3.458-9.019c-2.353-2.249-5.884-3.378-10.597-3.378H558.526V5.501H680.595z"/><path fill="#0066aa" d="M172.98,5.501v33.206H53.139c-4.783,0-8.319,1.129-10.598,3.378c-2.31,2.261-3.448,5.259-3.448,9.019c0,6.74,3.207,11.439,9.624,14.067l100.833,44.2c10.111,4.309,17.625,10.075,22.579,17.299c4.957,7.225,7.43,16.295,7.43,27.152c0,13.338-3.733,23.625-11.287,30.85c-7.513,7.203-18.721,10.825-33.586,10.825H9.895v-33.215h122.56c4.625,0,8.044-1.127,10.355-3.368c2.277-2.259,3.449-5.271,3.449-9.021c0-3.188-0.852-5.997-2.477-8.437c-1.664-2.43-3.973-4.301-6.903-5.642L35.513,91.627c-9.945-4.309-17.375-10.075-22.329-17.299C8.227,67.104,5.75,58.033,5.75,47.154c0-13.328,3.818-23.594,11.436-30.816C24.799,9.111,36.044,5.501,50.935,5.501H172.98z"/><path fill="#0066aa" d="M521.13,29.148C506.678,13.38,485.924,5.501,458.719,5.501h-25.341c-23.143,0-41.59,5.757-55.478,17.18c-2.41,2.002-4.764,4.103-6.902,6.468c-1.857,2.041-3.607,4.24-5.24,6.568c-7.854,11.215-12.879,25.689-15.072,43.319c-0.018,0.103-0.059,0.169-0.074,0.301c-0.042,0.379-0.108,0.956-0.212,1.664c-0.018,0.173-0.025,0.354-0.042,0.515c-0.723,7.373-2.169,27.873-2.868,37.846c-0.303,4.354-0.959,8.685-2.25,12.846c-1.837,5.691-4.224,10.465-7.252,14.359c-0.304,0.388-0.59,0.848-0.91,1.229c-8.167,9.662-21.161,14.489-38.948,14.489h-25.341c-18.193,0-31.35-4.786-39.389-14.351c-8.122-9.572-12.142-25.244-12.142-47.02c0-21.947,4.098-37.801,12.264-47.566c8.161-9.75,21.239-14.639,39.266-14.639h25.341c17.991,0,31.027,4.889,39.109,14.639c0.319,0.379,0.598,0.834,0.865,1.23c3.275-11.043,7.721-20.838,13.593-29.162l1.89-2.734c-13.868-11.422-32.355-17.18-55.457-17.18h-25.341c-27.207,0-48.001,7.879-62.414,23.646c-14.419,15.76-21.606,39.689-21.606,71.777c0,31.901,7.188,55.635,21.606,71.213c14.413,15.578,35.207,23.362,62.414,23.362h25.341c23.076,0,41.541-5.691,55.407-16.929c2.448-2.002,4.82-4.086,6.973-6.433c1.866-2.034,3.599-4.21,5.249-6.499c10.266-14.483,15.609-34.501,16.232-59.908c-0.05-1.585-0.109-3.133-0.109-4.805c0-1.665,0.061-3.227,0.109-4.82c0.565-18.717,4.319-32.613,11.328-41.684c0.308-0.333,0.541-0.74,0.805-1.074c8.188-9.75,21.295-14.639,39.256-14.639h25.341c18.027,0,31.026,4.889,39.139,14.639c8.045,9.766,12.108,25.524,12.108,47.281c0,21.777-4.105,37.502-12.226,47.166c-8.204,9.662-21.161,14.489-39.023,14.489h-25.341c-18.193,0-31.291-4.786-39.395-14.351c-0.2-0.279-0.391-0.6-0.624-0.864c-3.225,10.99-7.763,20.7-13.581,28.94l-1.828,2.561c13.88,11.237,32.318,16.929,55.428,16.929h25.341c27.204,0,47.957-7.784,62.411-23.362c14.452-15.578,21.643-39.312,21.643-71.213C542.772,68.836,535.582,44.906,521.13,29.148z"/><g><path fill="#4E6C7A" stroke="#4E6C7A" stroke-width="3" stroke-miterlimit="10" d="M127.495,252.48c0.96,0,1.8,0.234,2.52,0.701c0.72,0.47,1.2,1.099,1.44,1.891L158.095,327h-10.92l-21.48-61.128c-0.321-1.008-0.66-2.033-1.02-3.078c-0.36-1.043-0.701-2.033-1.02-2.97h-3.36c-0.321,0.937-0.642,1.927-0.96,2.97c-0.321,1.045-0.681,2.07-1.08,3.078L96.775,327h-10.92l26.64-71.928c0.24-0.792,0.72-1.421,1.44-1.891c0.72-0.467,1.56-0.701,2.52-0.701H127.495z M142.855,295.464v8.208h-42v-8.208H142.855z"/><path fill="#4E6C7A" stroke="#4E6C7A" stroke-width="3" stroke-miterlimit="10" d="M183.895,252.48V327h-10.56v-74.52H183.895z"/><path fill="#4E6C7A" stroke="#4E6C7A" stroke-width="3" stroke-miterlimit="10" d="M269.214,274.404v7.235h-39.48v-6.695l11.16-0.54H269.214z M257.334,249.564c1.279,0,2.919,0.019,4.92,0.054c1.999,0.037,4.039,0.107,6.12,0.216c2.08,0.108,3.879,0.27,5.4,0.486l-0.84,6.804h-12c-3.84,0-6.54,0.686-8.1,2.052c-1.56,1.369-2.34,3.637-2.34,6.805V327h-10.2v-61.992c0-3.311,0.559-6.102,1.68-8.37c1.119-2.268,2.919-4.013,5.4-5.237C249.853,250.177,253.173,249.564,257.334,249.564z"/><path fill="#4E6C7A" stroke="#4E6C7A" stroke-width="3" stroke-miterlimit="10" d="M308.693,273.108c6.72,0,12.099,0.9,16.14,2.699c4.039,1.801,6.939,4.735,8.7,8.803c1.759,4.068,2.64,9.449,2.64,16.146s-0.881,12.079-2.64,16.146c-1.761,4.068-4.661,7.003-8.7,8.802c-4.041,1.799-9.42,2.7-16.14,2.7c-6.641,0-11.981-0.901-16.02-2.7c-4.041-1.799-6.96-4.733-8.76-8.802c-1.8-4.067-2.7-9.45-2.7-16.146s0.9-12.077,2.7-16.146c1.8-4.067,4.72-7.002,8.76-8.803C296.712,274.009,302.052,273.108,308.693,273.108z M308.693,280.884c-4.241,0-7.581,0.594-10.02,1.782c-2.441,1.188-4.181,3.223-5.22,6.102c-1.041,2.881-1.56,6.877-1.56,11.988c0,5.113,0.52,9.109,1.56,11.988c1.039,2.881,2.779,4.914,5.22,6.102c2.439,1.188,5.779,1.782,10.02,1.782c4.239,0,7.599-0.594,10.08-1.782c2.479-1.188,4.239-3.221,5.28-6.102c1.039-2.879,1.56-6.875,1.56-11.988c0-5.111-0.521-9.107-1.56-11.988c-1.041-2.879-2.801-4.914-5.28-6.102C316.292,281.478,312.933,280.884,308.693,280.884z"/><path fill="#4E6C7A" stroke="#4E6C7A" stroke-width="3" stroke-miterlimit="10" d="M363.652,274.404l1.32,10.044l0.96,1.62V327h-10.2v-52.596H363.652z M392.332,273.108l-1.2,8.64h-3.36c-3.439,0-6.881,0.631-10.319,1.89c-3.44,1.261-7.641,3.043-12.6,5.347l-0.84-5.725c4.32-3.167,8.659-5.651,13.02-7.452c4.359-1.799,8.58-2.699,12.659-2.699H392.332z"/><path fill="#4E6C7A" stroke="#4E6C7A" stroke-width="3" stroke-miterlimit="10" d="M459.41,251.184c3.918,0.073,7.959,0.254,12.119,0.54c4.159,0.289,8.319,0.829,12.48,1.62l-0.72,6.912c-3.441-0.144-7.241-0.27-11.4-0.378c-4.16-0.108-8.16-0.162-12-0.162c-2.961,0-5.501,0.091-7.62,0.271c-2.12,0.181-3.86,0.612-5.22,1.296c-1.361,0.685-2.34,1.801-2.94,3.348c-0.6,1.549-0.899,3.69-0.899,6.426c0,4.104,0.819,6.967,2.46,8.586c1.639,1.62,4.299,2.827,7.979,3.618l16.8,3.78c6.399,1.368,10.78,3.763,13.141,7.182c2.358,3.421,3.54,8.011,3.54,13.771c0,4.319-0.54,7.813-1.62,10.476c-1.08,2.665-2.741,4.698-4.98,6.103c-2.24,1.403-5.12,2.376-8.64,2.916c-3.521,0.54-7.68,0.81-12.479,0.81c-2.721,0-6.261-0.107-10.62-0.324c-4.361-0.216-9.381-0.793-15.061-1.728l0.72-7.021c4.72,0.146,8.521,0.271,11.4,0.378c2.88,0.108,5.358,0.162,7.44,0.162c2.079,0,4.239,0,6.479,0c4.239,0,7.579-0.286,10.021-0.863c2.439-0.576,4.158-1.729,5.159-3.456c1-1.729,1.5-4.283,1.5-7.668c0-2.879-0.359-5.111-1.079-6.696c-0.721-1.583-1.86-2.789-3.421-3.618c-1.56-0.827-3.539-1.493-5.939-1.998l-17.16-3.888c-6-1.367-10.221-3.743-12.66-7.128c-2.441-3.384-3.66-7.92-3.66-13.608c0-4.32,0.54-7.793,1.62-10.422c1.08-2.627,2.719-4.606,4.92-5.94c2.2-1.331,4.98-2.214,8.341-2.646C450.77,251.4,454.77,251.184,459.41,251.184z"/><path fill="#4E6C7A" stroke="#4E6C7A" stroke-width="3" stroke-miterlimit="10" d="M522.528,252.372c4,0,8.02,0,12.061,0c4.038,0,8.04,0.054,12,0.162c3.96,0.107,7.779,0.27,11.46,0.485l-0.48,7.452h-33.239c-2.481,0-4.302,0.559-5.461,1.675c-1.16,1.116-1.739,2.934-1.739,5.453v44.28c0,2.521,0.579,4.357,1.739,5.508c1.159,1.153,2.979,1.729,5.461,1.729h33.239l0.48,7.344c-3.681,0.216-7.5,0.361-11.46,0.432c-3.96,0.073-7.962,0.125-12,0.162c-4.041,0.036-8.061,0.055-12.061,0.055c-4.88,0-8.741-1.17-11.58-3.511c-2.84-2.339-4.301-5.489-4.38-9.449v-48.816c0.079-4.031,1.54-7.199,4.38-9.504C513.787,253.524,517.648,252.372,522.528,252.372z M508.729,283.8h44.16v7.668h-44.16V283.8z"/><path fill="#4E6C7A" stroke="#4E6C7A" stroke-width="3" stroke-miterlimit="10" d="M607.009,251.076c6,0,11.1,0.647,15.3,1.943c4.2,1.297,7.561,3.439,10.08,6.427c2.521,2.988,4.359,6.966,5.521,11.934c1.158,4.968,1.739,11.089,1.739,18.36c0,7.272-0.581,13.392-1.739,18.359c-1.161,4.969-3,8.947-5.521,11.935c-2.52,2.988-5.88,5.13-10.08,6.426s-9.3,1.944-15.3,1.944s-11.1-0.648-15.3-1.944s-7.581-3.438-10.141-6.426c-2.561-2.987-4.421-6.966-5.58-11.935c-1.16-4.968-1.739-11.087-1.739-18.359c0-7.271,0.579-13.393,1.739-18.36c1.159-4.968,3.02-8.945,5.58-11.934c2.56-2.987,5.94-5.13,10.141-6.427C595.909,251.724,601.009,251.076,607.009,251.076z M607.009,259.608c-5.441,0-9.74,0.937-12.9,2.808c-3.161,1.873-5.399,4.986-6.72,9.342c-1.32,4.357-1.979,10.352-1.979,17.982c0,7.56,0.659,13.537,1.979,17.928c1.32,4.393,3.559,7.524,6.72,9.396c3.16,1.873,7.459,2.808,12.9,2.808c5.439,0,9.738-0.935,12.9-2.808c3.159-1.872,5.399-5.004,6.72-9.396c1.319-4.391,1.979-10.368,1.979-17.928c0-7.631-0.66-13.625-1.979-17.982c-1.32-4.355-3.561-7.469-6.72-9.342C616.747,260.545,612.448,259.608,607.009,259.608z"/></g></svg>